<svg width="12" height="12" viewBox="0 0 12 12" fill="none" xmlns="http://www.w3.org/2000/svg">
<g clip-path="url(#clip0)">
<path d="M9.21864 0.0715027H2.55911C1.28237 0.0715027 0.243713 1.11016 0.243713 2.3869V5.96302C0.243713 6.98178 0.912577 7.86909 1.88181 8.15309L3.00005 9.27142C3.06216 9.33344 3.14623 9.36833 3.23401 9.36833C3.32169 9.36833 3.40585 9.33344 3.46787 9.27142L4.49369 8.24551H9.21864C10.4954 8.24551 11.534 7.20686 11.534 5.93012V2.3869C11.534 1.11016 10.4954 0.0715027 9.21864 0.0715027ZM10.8725 5.93012C10.8725 6.84206 10.1306 7.58397 9.21864 7.58397H4.35673C4.26904 7.58397 4.18489 7.61886 4.12287 7.68088L3.23401 8.56974L2.28735 7.62308C2.24488 7.58061 2.19165 7.55046 2.13333 7.53599C1.41028 7.35605 0.905256 6.70924 0.905256 5.96302V2.3869C0.905256 1.47495 1.64717 0.733045 2.55911 0.733045H9.21864C10.1306 0.733045 10.8725 1.47495 10.8725 2.3869V5.93012Z" fill="white"/>
<path d="M7.98911 3.24312H3.78866C3.60596 3.24312 3.45789 3.39128 3.45789 3.57389C3.45789 3.75659 3.60596 3.90466 3.78866 3.90466H7.98911C8.17181 3.90466 8.31988 3.75659 8.31988 3.57389C8.31988 3.39128 8.17181 3.24312 7.98911 3.24312Z" fill="white"/>
<path d="M7.98911 4.41235H3.78866C3.60596 4.41235 3.45789 4.56043 3.45789 4.74312C3.45789 4.92582 3.60596 5.0739 3.78866 5.0739H7.98911C8.17181 5.0739 8.31988 4.92582 8.31988 4.74312C8.31988 4.56043 8.17181 4.41235 7.98911 4.41235Z" fill="white"/>
</g>
<defs>
<clipPath id="clip0">
<rect width="11.2903" height="11.2903" fill="white" transform="translate(0.243713 0.2724)"/>
</clipPath>
</defs>
</svg>
