<svg width="14" height="14" viewBox="0 0 14 14" fill="none" xmlns="http://www.w3.org/2000/svg">
<path d="M10.7818 3.8193L8.69919 1.73667C8.6406 1.67808 8.56115 1.64516 8.4783 1.64516H2.64693C2.4744 1.64516 2.33453 1.78503 2.33453 1.95755V11.9958C2.33453 12.1684 2.4744 12.3082 2.64693 12.3082H10.5609C10.7335 12.3082 10.8733 12.1684 10.8733 11.9958V4.04019C10.8733 3.95734 10.8404 3.87789 10.7818 3.8193ZM8.7907 2.71174L9.80675 3.72779H8.7907V2.71174ZM2.95932 11.6834V2.26995H8.16591V4.04019C8.16591 4.21271 8.30578 4.35258 8.4783 4.35258H10.2485V11.6834H2.95932Z" fill="white"/>
<path d="M9.31137 10.3922H6.81221C6.63969 10.3922 6.49982 10.5321 6.49982 10.7046C6.49982 10.8771 6.63969 11.017 6.81221 11.017H9.31137C9.4839 11.017 9.62377 10.8771 9.62377 10.7046C9.62377 10.5321 9.4839 10.3922 9.31137 10.3922Z" fill="white"/>
<path d="M9.31137 9.14264H6.81221C6.63969 9.14264 6.49982 9.28251 6.49982 9.45503C6.49982 9.62756 6.63969 9.76743 6.81221 9.76743H9.31137C9.4839 9.76743 9.62377 9.62756 9.62377 9.45503C9.62377 9.28251 9.4839 9.14264 9.31137 9.14264Z" fill="white"/>
<path d="M7.02046 5.81043H7.22873V6.01869C7.22873 6.19122 7.3686 6.33108 7.54112 6.33108C7.71365 6.33108 7.85352 6.19122 7.85352 6.01869V5.81043H8.06178C8.23431 5.81043 8.37417 5.67056 8.37417 5.49803C8.37417 5.32551 8.23431 5.18564 8.06178 5.18564H7.85352V4.97737C7.85352 4.80485 7.71365 4.66498 7.54112 4.66498C7.3686 4.66498 7.22873 4.80485 7.22873 4.97737V5.18564H7.02046C6.84794 5.18564 6.70807 5.32551 6.70807 5.49803C6.70807 5.67056 6.84794 5.81043 7.02046 5.81043Z" fill="white"/>
<path d="M6.7385 7.67863L5.57612 4.59854C5.57504 4.59567 5.57391 4.59284 5.57275 4.58998C5.51339 4.44572 5.37434 4.35258 5.21837 4.35258H5.21795C5.06184 4.35275 4.92278 4.44622 4.86367 4.59073C4.86272 4.59309 4.86178 4.59544 4.86088 4.59779L3.68784 7.67774C3.62643 7.83898 3.70736 8.01946 3.86859 8.08085C3.90519 8.09479 3.94276 8.10139 3.97972 8.10139C4.1056 8.10139 4.22424 8.02473 4.27173 7.9001L4.48724 7.33425H5.94073L6.15395 7.89923C6.21486 8.06065 6.3951 8.14214 6.55652 8.08119C6.71794 8.02029 6.79942 7.84006 6.7385 7.67863ZM4.72522 6.70946L5.21735 5.41735L5.70497 6.70946H4.72522Z" fill="white"/>
</svg>
